<?xml version="1.0" encoding="UTF-8" standalone="no"?>
<!-- Created with Inkscape (http://www.inkscape.org/) -->

<svg
   width="141.08269"
   height="141.06284"
   viewBox="0 0 37.328126 37.322874"
   version="1.1"
   id="svg5"
   inkscape:version="1.2.2 (732a01da63, 2022-12-09)"
   sodipodi:docname="layout.svg"
   xml:space="preserve"
   xmlns:inkscape="http://www.inkscape.org/namespaces/inkscape"
   xmlns:sodipodi="http://sodipodi.sourceforge.net/DTD/sodipodi-0.dtd"
   xmlns="http://www.w3.org/2000/svg"
   xmlns:svg="http://www.w3.org/2000/svg"><sodipodi:namedview
     id="namedview7"
     pagecolor="#505050"
     bordercolor="#eeeeee"
     borderopacity="1"
     inkscape:showpageshadow="0"
     inkscape:pageopacity="0"
     inkscape:pagecheckerboard="0"
     inkscape:deskcolor="#505050"
     inkscape:document-units="px"
     showgrid="false"
     inkscape:lockguides="true"
     inkscape:zoom="0.4204826"
     inkscape:cx="3038.1757"
     inkscape:cy="-57.077273"
     inkscape:window-width="1280"
     inkscape:window-height="961"
     inkscape:window-x="-8"
     inkscape:window-y="-8"
     inkscape:window-maximized="1"
     inkscape:current-layer="layer1" /><defs
     id="defs2" /><g
     inkscape:label="Camada 1"
     inkscape:groupmode="layer"
     id="layer1"
     transform="translate(-825.77241,204.9183)"><path
       style="fill:#ff0066;fill-opacity:1;stroke-width:0.0728626"
       d="m 829.20824,-167.71507 c -1.60207,-0.34533 -2.97591,-1.73259 -3.31493,-3.3473 -0.16117,-0.76768 -0.16117,-29.61602 0,-30.3837 0.34277,-1.63258 1.71878,-3.00859 3.35136,-3.35136 0.76768,-0.16117 29.61602,-0.16117 30.3837,0 1.63258,0.34277 3.00859,1.71878 3.35136,3.35136 0.16117,0.76768 0.16117,29.61602 0,30.3837 -0.34277,1.63258 -1.71878,3.00859 -3.35136,3.35136 -0.74638,0.1567 -29.69222,0.15284 -30.42013,-0.004 z m 16.68553,-8.73913 v -5.9383 h -2.18588 -2.18587 v -2.25874 -2.25874 h 2.1785 2.1785 l 0.0327,-2.0948 c 0.029,-1.85432 0.0508,-2.16172 0.19028,-2.6777 0.64392,-2.38287 2.46634,-4.20174 4.86816,-4.85869 0.50168,-0.13722 0.81404,-0.15981 2.59235,-0.18745 l 2.02194,-0.0314 v 2.26555 2.26555 h -1.67311 c -1.97466,0 -2.27146,0.0674 -2.85208,0.64806 -0.58519,0.58519 -0.64806,0.86893 -0.64806,2.92494 v 1.74597 h 2.63095 2.63096 l -0.0382,0.16394 c -0.021,0.0902 -0.19375,1.1066 -0.38385,2.25874 l -0.34565,2.0948 h -2.2471 -2.2471 v 5.94048 5.94048 l 4.38997,-0.0204 4.38997,-0.0204 0.27814,-0.17292 c 0.15298,-0.0951 0.3661,-0.30583 0.47361,-0.46828 l 0.19547,-0.29537 v -14.76 -14.75999 l -0.17292,-0.27814 c -0.0951,-0.15298 -0.30583,-0.3661 -0.46828,-0.47361 l -0.29537,-0.19547 h -14.76532 -14.76531 l -0.29537,0.19547 c -0.16246,0.10751 -0.37319,0.32063 -0.46829,0.47361 l -0.17292,0.27814 -0.0189,14.59854 c -0.0131,10.13212 0.005,14.68649 0.0585,14.88602 0.094,0.3491 0.55484,0.8305 0.88662,0.92618 0.14391,0.0415 3.43353,0.0717 8.23628,0.0757 l 7.99667,0.007 z"
       id="path2669"
       inkscape:export-filename="..\..\Documents\Projetos\gihstilus\img\facebook.svg"
       inkscape:export-xdpi="96"
       inkscape:export-ydpi="96" /></g></svg>
