<?xml version="1.0" encoding="UTF-8" standalone="no"?>
<!-- Created with Inkscape (http://www.inkscape.org/) -->

<svg
   width="140.72212"
   height="140.74104"
   viewBox="0 0 37.232727 37.237733"
   version="1.1"
   id="svg5"
   inkscape:version="1.2.2 (732a01da63, 2022-12-09)"
   sodipodi:docname="layout.svg"
   xml:space="preserve"
   xmlns:inkscape="http://www.inkscape.org/namespaces/inkscape"
   xmlns:sodipodi="http://sodipodi.sourceforge.net/DTD/sodipodi-0.dtd"
   xmlns="http://www.w3.org/2000/svg"
   xmlns:svg="http://www.w3.org/2000/svg"><sodipodi:namedview
     id="namedview7"
     pagecolor="#505050"
     bordercolor="#eeeeee"
     borderopacity="1"
     inkscape:showpageshadow="0"
     inkscape:pageopacity="0"
     inkscape:pagecheckerboard="0"
     inkscape:deskcolor="#505050"
     inkscape:document-units="px"
     showgrid="false"
     inkscape:lockguides="true"
     inkscape:zoom="0.4204826"
     inkscape:cx="3544.7365"
     inkscape:cy="175.98826"
     inkscape:window-width="1280"
     inkscape:window-height="961"
     inkscape:window-x="-8"
     inkscape:window-y="-8"
     inkscape:window-maximized="1"
     inkscape:current-layer="layer1" /><defs
     id="defs2" /><g
     inkscape:label="Camada 1"
     inkscape:groupmode="layer"
     id="layer1"
     transform="translate(-916.43031,204.87063)"><path
       style="fill:#ffffff;stroke-width:0.0728626"
       d="m 925.61094,-167.65123 c -2.40519,-0.23007 -4.52832,-1.22956 -6.23304,-2.93427 -1.49061,-1.49061 -2.42686,-3.2667 -2.82255,-5.35443 -0.11427,-0.60289 -0.1251,-1.4956 -0.1251,-10.31431 0,-8.81871 0.0108,-9.71142 0.1251,-10.31431 0.39569,-2.08773 1.33194,-3.86381 2.82255,-5.35443 1.49062,-1.49061 3.2667,-2.42686 5.35443,-2.82255 0.60289,-0.11427 1.4956,-0.1251 10.31431,-0.1251 8.81868,0 9.71138,0.0108 10.31428,0.1251 2.0878,0.39569 3.8638,1.33194 5.3545,2.82255 1.4906,1.49062 2.4268,3.2667 2.8225,5.35443 0.1143,0.60289 0.1251,1.4956 0.1251,10.31431 0,8.81871 -0.011,9.71142 -0.1251,10.31431 -0.3957,2.08773 -1.3319,3.86382 -2.8225,5.35443 -1.1882,1.18814 -2.4452,1.96246 -4.023,2.47804 -1.479,0.48333 -0.8816,0.45842 -11.3179,0.47189 -5.20967,0.007 -9.60328,-2.9e-4 -9.76358,-0.0157 z m 19.19928,-2.23857 c 3.4176,-0.56257 6.0383,-3.18325 6.6009,-6.60085 0.1507,-0.91546 0.1507,-18.61172 0,-19.52717 -0.5626,-3.41761 -3.1833,-6.03828 -6.6009,-6.60086 -0.9154,-0.15069 -18.61171,-0.15069 -19.52716,0 -3.41761,0.56258 -6.03828,3.18325 -6.60086,6.60086 -0.15069,0.91545 -0.15069,18.61171 0,19.52717 0.55701,3.38378 3.16113,6.01435 6.52799,6.59429 0.83732,0.14423 18.72733,0.15022 19.60003,0.007 z m -10.92938,-6.24273 c -2.24772,-0.24738 -4.35262,-1.27583 -6.01635,-2.93956 -2.17825,-2.17825 -3.24467,-5.09833 -2.95457,-8.09025 0.23984,-2.47355 1.20624,-4.52572 2.95457,-6.27405 2.17825,-2.17825 5.09833,-3.24467 8.09025,-2.95457 2.47356,0.23984 4.52568,1.20624 6.27408,2.95457 2.1782,2.17825 3.2446,5.09833 2.9545,8.09025 -0.2398,2.47356 -1.2062,4.52573 -2.9545,6.27405 -2.2371,2.23706 -5.2122,3.28469 -8.34798,2.93956 z m 2.80521,-2.28685 c 2.72874,-0.57862 5.02157,-2.59564 5.91137,-5.20029 1.2658,-3.70546 -0.2385,-7.67141 -3.65015,-9.62322 -1.59036,-0.90984 -3.69984,-1.23161 -5.54004,-0.84505 -2.72201,0.5718 -5.02147,2.59421 -5.91136,5.19914 -1.61062,4.71468 1.32827,9.67646 6.24033,10.5357 0.77154,0.13496 2.14649,0.10406 2.94985,-0.0663 z m 8.20987,-15.70912 c -0.5408,-0.10643 -1.0912,-0.408 -1.5113,-0.82806 -1.4555,-1.45552 -1.0429,-3.92264 0.8004,-4.78518 1.523,-0.71272 3.2919,-0.10469 3.9924,1.37234 1.0614,2.23796 -0.8575,4.71792 -3.2815,4.2409 z m 0.9675,-2.2205 c 0.612,-0.29043 0.5683,-1.19213 -0.071,-1.45913 -0.6841,-0.28585 -1.3203,0.38813 -1.0275,1.0887 0.075,0.1792 0.1925,0.30396 0.3519,0.37324 0.3109,0.13505 0.4569,0.1345 0.7463,-0.003 z"
       id="path2304"
       inkscape:export-filename="..\..\Documents\Projetos\gihstilus\img\instagram.svg"
       inkscape:export-xdpi="96"
       inkscape:export-ydpi="96" /></g></svg>
