<?xml version="1.0" encoding="UTF-8" standalone="no"?>
<!-- Created with Inkscape (http://www.inkscape.org/) -->

<svg
   width="31.638088"
   height="31.66081"
   viewBox="0 0 8.3709105 8.3769226"
   version="1.1"
   id="svg5"
   inkscape:version="1.2.2 (732a01da63, 2022-12-09)"
   sodipodi:docname="layout.svg"
   xml:space="preserve"
   xmlns:inkscape="http://www.inkscape.org/namespaces/inkscape"
   xmlns:sodipodi="http://sodipodi.sourceforge.net/DTD/sodipodi-0.dtd"
   xmlns="http://www.w3.org/2000/svg"
   xmlns:svg="http://www.w3.org/2000/svg"><sodipodi:namedview
     id="namedview7"
     pagecolor="#505050"
     bordercolor="#eeeeee"
     borderopacity="1"
     inkscape:showpageshadow="0"
     inkscape:pageopacity="0"
     inkscape:pagecheckerboard="0"
     inkscape:deskcolor="#505050"
     inkscape:document-units="px"
     showgrid="false"
     inkscape:lockguides="true"
     inkscape:zoom="0.2973261"
     inkscape:cx="2429.9918"
     inkscape:cy="258.97491"
     inkscape:window-width="1280"
     inkscape:window-height="961"
     inkscape:window-x="-8"
     inkscape:window-y="-8"
     inkscape:window-maximized="1"
     inkscape:current-layer="layer1" /><defs
     id="defs2" /><g
     inkscape:label="Camada 1"
     inkscape:groupmode="layer"
     id="layer1"
     transform="translate(-720.82477,168.52283)"><path
       style="fill:#ffffff;fill-opacity:1;stroke-width:0.0163837"
       d="m 724.68095,-160.15821 c -0.70945,-0.0542 -1.4168,-0.3005 -2.00497,-0.69775 -1.02277,-0.69077 -1.67669,-1.76035 -1.8313,-2.99538 -0.0265,-0.2109 -0.0265,-0.7557 0,-0.96662 0.15141,-1.20941 0.78285,-2.26305 1.77088,-2.95478 0.95383,-0.66782 2.17299,-0.90613 3.31771,-0.64854 1.39711,0.31439 2.55738,1.35209 3.02999,2.70986 0.48502,1.39337 0.19988,2.94116 -0.75011,4.07187 -0.86773,1.03286 -2.18354,1.58467 -3.5322,1.48134 z m -1.11995,-2.20235 0.51889,-0.12312 0.1321,0.0564 c 0.27799,0.11879 0.54708,0.16521 0.88371,0.1524 0.53189,-0.0203 0.99637,-0.22505 1.37977,-0.60845 0.30236,-0.30236 0.48374,-0.63735 0.57569,-1.06332 0.0454,-0.20999 0.0396,-0.65714 -0.0116,-0.86328 -0.0974,-0.39571 -0.26772,-0.70637 -0.54435,-0.99234 -0.69724,-0.72075 -1.79314,-0.83839 -2.64315,-0.28373 -0.16271,0.10615 -0.46717,0.40802 -0.57051,0.56559 -0.23734,0.36189 -0.35517,0.75006 -0.35517,1.16996 0,0.29005 0.059,0.58078 0.1657,0.81661 0.0261,0.0576 0.0474,0.12095 0.0474,0.14075 0,0.02 -0.0479,0.26643 -0.10643,0.54796 -0.0586,0.28155 -0.10644,0.5218 -0.10644,0.53391 0,0.0323 0.0466,0.0737 0.0834,0.0737 0.0175,0 0.26537,-0.0554 0.55076,-0.12311 z m 1.19953,-0.38397 c -0.15555,-0.0286 -0.33211,-0.0854 -0.47828,-0.15356 l -0.15123,-0.0705 -0.30799,0.0727 c -0.16937,0.0399 -0.31133,0.0694 -0.31544,0.065 -0.003,-0.003 0.0218,-0.14807 0.0577,-0.31986 l 0.0652,-0.31239 -0.0715,-0.15306 c -0.13759,-0.29476 -0.18432,-0.523 -0.16858,-0.82353 0.0372,-0.71384 0.52127,-1.30281 1.22099,-1.48617 0.17948,-0.0471 0.47802,-0.0579 0.6696,-0.0245 1.0737,0.18759 1.65761,1.34434 1.17536,2.32855 -0.20184,0.4119 -0.60339,0.73119 -1.06387,0.84591 -0.14624,0.0366 -0.50732,0.0544 -0.63209,0.0314 z m 0.99683,-0.61566 c 0.1266,-0.0376 0.33223,-0.23911 0.37126,-0.36374 0.015,-0.0491 -0.0306,-0.14274 -0.0818,-0.16587 -0.0727,-0.0331 -0.43892,-0.13359 -0.48696,-0.13359 -0.0344,0 -0.0722,0.0241 -0.14292,0.0917 -0.11662,0.11113 -0.16221,0.11729 -0.29404,0.0396 -0.18836,-0.11097 -0.4679,-0.36151 -0.57054,-0.51114 -0.0677,-0.0987 -0.0672,-0.1534 0.002,-0.24455 0.0676,-0.0887 0.0927,-0.13526 0.0927,-0.17116 0,-0.0477 -0.1957,-0.47291 -0.23154,-0.50292 -0.0199,-0.0168 -0.0612,-0.0288 -0.0995,-0.0288 -0.0583,0 -0.0762,0.01 -0.16705,0.10248 -0.14157,0.14241 -0.19004,0.24563 -0.19004,0.40526 0,0.0684 0.0116,0.1665 0.0245,0.21794 0.12627,0.48451 0.79183,1.11818 1.31907,1.25571 0.14908,0.0389 0.3413,0.0428 0.45484,0.008 z"
       id="path15659"
       inkscape:export-filename="..\..\Documents\Projetos\gihstilus\img\wtapp.svg"
       inkscape:export-xdpi="96"
       inkscape:export-ydpi="96" /></g></svg>
