<?xml version="1.0" encoding="UTF-8" standalone="no"?>
<!-- Created with Inkscape (http://www.inkscape.org/) -->

<svg
   width="108.9943"
   height="109.0723"
   viewBox="0 0 28.838074 28.858711"
   version="1.1"
   id="svg5"
   inkscape:version="1.2.2 (732a01da63, 2022-12-09)"
   sodipodi:docname="layout.svg"
   xml:space="preserve"
   xmlns:inkscape="http://www.inkscape.org/namespaces/inkscape"
   xmlns:sodipodi="http://sodipodi.sourceforge.net/DTD/sodipodi-0.dtd"
   xmlns="http://www.w3.org/2000/svg"
   xmlns:svg="http://www.w3.org/2000/svg"><sodipodi:namedview
     id="namedview7"
     pagecolor="#505050"
     bordercolor="#eeeeee"
     borderopacity="1"
     inkscape:showpageshadow="0"
     inkscape:pageopacity="0"
     inkscape:pagecheckerboard="0"
     inkscape:deskcolor="#505050"
     inkscape:document-units="px"
     showgrid="false"
     inkscape:lockguides="true"
     inkscape:zoom="0.4204826"
     inkscape:cx="2938.2904"
     inkscape:cy="-168.8536"
     inkscape:window-width="1280"
     inkscape:window-height="961"
     inkscape:window-x="-8"
     inkscape:window-y="-8"
     inkscape:window-maximized="1"
     inkscape:current-layer="layer1" /><defs
     id="defs2" /><g
     inkscape:label="Camada 1"
     inkscape:groupmode="layer"
     id="layer1"
     transform="translate(-804.04035,148.74631)"><path
       style="fill:#ff0066;fill-opacity:1;stroke-width:0.0564422"
       d="m 817.32487,-119.92999 c -2.44407,-0.18672 -4.8809,-1.03523 -6.90716,-2.4038 -3.52347,-2.37969 -5.77624,-6.06442 -6.30888,-10.31912 -0.0913,-0.72659 -0.0913,-2.60341 0,-3.33003 0.52162,-4.16645 2.69694,-7.79626 6.10073,-10.17929 3.28596,-2.30069 7.486,-3.12164 11.42959,-2.23423 4.81307,1.08304 8.81023,4.65794 10.43838,9.33553 1.67091,4.80016 0.68859,10.13233 -2.58414,14.02769 -2.98935,3.55822 -7.52235,5.45922 -12.16852,5.10325 z m -3.85825,-7.58719 1.78759,-0.42411 0.45509,0.1943 c 0.95768,0.40923 1.8847,0.56915 3.0444,0.52502 1.83237,-0.0699 3.43252,-0.7753 4.75334,-2.09613 1.04164,-1.04163 1.66649,-2.19568 1.98326,-3.66316 0.15641,-0.72342 0.13643,-2.2639 -0.04,-2.97402 -0.33554,-1.36323 -0.9223,-2.43346 -1.8753,-3.41863 -2.40201,-2.483 -6.17741,-2.88828 -9.10571,-0.97746 -0.56054,0.36569 -1.60941,1.40564 -1.96542,1.94847 -0.81764,1.24672 -1.22357,2.58398 -1.22357,4.03054 0,0.99923 0.20326,2.0008 0.57084,2.81324 0.0899,0.19844 0.16329,0.41668 0.16329,0.48489 0,0.0689 -0.16501,0.91782 -0.36665,1.88773 -0.20188,0.96992 -0.36669,1.79762 -0.36669,1.83934 0,0.11127 0.16054,0.25389 0.28732,0.25389 0.0603,0 0.9142,-0.19085 1.89738,-0.42411 z m 4.13241,-1.32275 c -0.53587,-0.0985 -1.14413,-0.2942 -1.64769,-0.52901 l -0.52099,-0.24288 -1.06103,0.25045 c -0.58348,0.13746 -1.07254,0.23909 -1.0867,0.22428 -0.0103,-0.0103 0.0751,-0.51011 0.19878,-1.10193 l 0.22462,-1.07619 -0.24632,-0.5273 c -0.474,-1.01545 -0.63499,-1.80174 -0.58077,-2.83708 0.12816,-2.45923 1.79579,-4.48821 4.20634,-5.11989 0.61832,-0.16226 1.64679,-0.19946 2.30679,-0.0844 3.69892,0.64622 5.71051,4.63128 4.04914,8.02191 -0.69534,1.41897 -2.07869,2.51897 -3.66505,2.91415 -0.5038,0.12608 -1.74773,0.1874 -2.17757,0.10817 z m 3.4341,-2.12099 c 0.43614,-0.12954 1.14454,-0.82371 1.279,-1.25306 0.0517,-0.16915 -0.10542,-0.49178 -0.2818,-0.57143 -0.25045,-0.11403 -1.51209,-0.46025 -1.67759,-0.46025 -0.11851,0 -0.24873,0.083 -0.49236,0.31591 -0.40176,0.38288 -0.55882,0.40406 -1.01298,0.13642 -0.6489,-0.3823 -1.61192,-1.24538 -1.96552,-1.76086 -0.23323,-0.34002 -0.23151,-0.52846 0.007,-0.84248 0.23288,-0.30557 0.31935,-0.46597 0.31935,-0.58965 0,-0.16467 -0.67419,-1.62918 -0.79766,-1.73257 -0.0685,-0.0579 -0.21083,-0.0992 -0.34278,-0.0992 -0.20084,0 -0.26251,0.0344 -0.57549,0.35305 -0.48771,0.49061 -0.65469,0.8462 -0.65469,1.39613 0,0.23564 0.04,0.5736 0.0844,0.75081 0.43501,1.66911 2.72788,3.85212 4.54423,4.32595 0.51358,0.13401 1.17579,0.14745 1.56693,0.0276 z"
       id="path4536"
       inkscape:export-filename="..\..\Documents\Projetos\gihstilus\img\wtapprosa.svg"
       inkscape:export-xdpi="96"
       inkscape:export-ydpi="96" /></g></svg>
